<svg width="395" height="146" viewBox="0 0 395 146" fill="none" xmlns="http://www.w3.org/2000/svg">
<path d="M0 83.337V73.663L77 34V49.4783L17.9348 78.2582L18.413 77.2908V79.7092L17.9348 78.7418L77 107.522V123L0 83.337Z" fill="var(--background-dark)"/>
<path d="M395 83.337L321 123V107.522L377.764 78.7418L377.304 79.7092V77.2908L377.764 78.2582L321 49.4783V34L395 73.663V83.337Z" fill="var(--background-dark)"/>
<path d="M300 0L261.575 146H249L287.425 0H300Z" fill="var(--background-dark)"/>
<path d="M141.036 129C133.569 129 126.977 127.088 121.26 123.264C115.543 119.4 111.07 113.96 107.842 106.943C104.614 99.886 103 91.5481 103 81.9288C103 72.3885 104.614 64.1096 107.842 57.0923C111.07 50.075 115.562 44.6543 121.318 40.8303C127.074 37.0062 133.724 35.0942 141.269 35.0942C147.103 35.0942 151.712 36.0798 155.095 38.051C158.518 39.9827 161.123 42.1904 162.912 44.674C164.74 47.1183 166.16 49.1288 167.171 50.7058H168.338V6H182.106V127.108H168.805V113.152H167.171C166.16 114.808 164.721 116.897 162.854 119.42C160.987 121.904 158.323 124.131 154.862 126.102C151.401 128.034 146.792 129 141.036 129ZM142.903 116.463C148.425 116.463 153.092 115.005 156.904 112.087C160.715 109.131 163.613 105.05 165.596 99.8466C167.579 94.6034 168.571 88.5519 168.571 81.6923C168.571 74.9115 167.599 68.9784 165.654 63.8928C163.71 58.7678 160.832 54.7861 157.02 51.9476C153.209 49.0697 148.503 47.6308 142.903 47.6308C137.069 47.6308 132.208 49.1486 128.318 52.1841C124.468 55.1803 121.571 59.2606 119.626 64.425C117.72 69.55 116.768 75.3058 116.768 81.6923C116.768 88.1577 117.74 94.0317 119.684 99.3144C121.668 104.558 124.585 108.737 128.435 111.851C132.324 114.926 137.147 116.463 142.903 116.463Z" fill="var(--background-dark)"/>
<path d="M223 6V127.108H209.232V6H223Z" fill="var(--background-dark)"/>
</svg>
