<svg width="105" height="18" viewBox="0 0 105 18" fill="none" xmlns="http://www.w3.org/2000/svg">
<path d="M0.5 11.0188V8.43475L10.6954 3.88336V6.85644L3.71503 9.69739L3.80916 9.54323V9.91028L3.71503 9.75612L10.6954 12.5971V15.5701L0.5 11.0188Z" fill="var(--detail)"/>
<path d="M92.1082 0L87.3291 18H84.6716L89.4507 0H92.1082Z" fill="var(--detail)"/>
<path d="M104.391 11.0188L94.1954 15.5701V12.5971L101.176 9.75612L101.082 9.91028V9.54323L101.176 9.69739L94.1954 6.85644V3.88336L104.391 8.43475V11.0188Z" fill="var(--detail)"/>
<path d="M20.5787 16C19.6798 16 18.8863 15.7738 18.1981 15.3214C17.5098 14.8643 16.9715 14.2206 16.5829 13.3904C16.1943 12.5555 16 11.569 16 10.431C16 9.30224 16.1943 8.32276 16.5829 7.49254C16.9715 6.66231 17.5122 6.02099 18.2051 5.56856C18.898 5.11614 19.6985 4.88992 20.6068 4.88992C21.309 4.88992 21.8638 5.00653 22.2711 5.23974C22.6831 5.46828 22.9968 5.72948 23.2122 6.02332C23.4322 6.3125 23.6031 6.55037 23.7248 6.73694H23.8653V1.44776H25.5226V15.7761H23.9214V14.125H23.7248C23.6031 14.3209 23.4299 14.5681 23.2051 14.8666C22.9804 15.1604 22.6597 15.424 22.243 15.6572C21.8264 15.8857 21.2716 16 20.5787 16ZM20.8034 14.5168C21.4682 14.5168 22.03 14.3442 22.4888 13.9991C22.9476 13.6493 23.2964 13.1665 23.5352 12.5508C23.774 11.9305 23.8933 11.2146 23.8933 10.403C23.8933 9.60075 23.7763 8.89879 23.5422 8.29711C23.3081 7.69076 22.9617 7.21968 22.5029 6.88386C22.0441 6.54338 21.4776 6.37313 20.8034 6.37313C20.1012 6.37313 19.516 6.5527 19.0478 6.91185C18.5843 7.26632 18.2355 7.74907 18.0014 8.36007C17.772 8.96642 17.6573 9.64739 17.6573 10.403C17.6573 11.1679 17.7744 11.8629 18.0084 12.4879C18.2472 13.1082 18.5983 13.6026 19.0618 13.9711C19.53 14.3349 20.1105 14.5168 20.8034 14.5168Z" fill="var(--color-primary)"/>
<path d="M33.3106 16C32.2712 16 31.3747 15.7715 30.6209 15.3144C29.8719 14.8526 29.2937 14.209 28.8864 13.3834C28.4838 12.5532 28.2824 11.5877 28.2824 10.4869C28.2824 9.38619 28.4838 8.41604 28.8864 7.57649C29.2937 6.73228 29.8602 6.07463 30.5858 5.60354C31.3162 5.1278 32.1682 4.88992 33.142 4.88992C33.7038 4.88992 34.2586 4.98321 34.8064 5.16977C35.3541 5.35634 35.8527 5.65951 36.3022 6.07929C36.7516 6.4944 37.1098 7.04478 37.3766 7.73041C37.6435 8.41604 37.7769 9.26026 37.7769 10.2631V10.9627H29.4622V9.53545H36.0915C36.0915 8.9291 35.9698 8.38806 35.7263 7.91231C35.4876 7.43657 35.1458 7.0611 34.701 6.78591C34.261 6.51073 33.7413 6.37313 33.142 6.37313C32.4819 6.37313 31.9108 6.53638 31.4285 6.86287C30.951 7.1847 30.5835 7.60448 30.326 8.1222C30.0685 8.63992 29.9398 9.19496 29.9398 9.78731V10.7388C29.9398 11.5504 30.0802 12.2383 30.3611 12.8027C30.6467 13.3624 31.0423 13.7892 31.5479 14.083C32.0535 14.3722 32.6411 14.5168 33.3106 14.5168C33.746 14.5168 34.1392 14.4562 34.4904 14.3349C34.8462 14.209 35.1528 14.0224 35.4103 13.7752C35.6678 13.5233 35.8668 13.2108 36.0072 12.8377L37.6084 13.2854C37.4398 13.8265 37.1566 14.3022 36.7587 14.7127C36.3607 15.1185 35.8691 15.4356 35.2839 15.6642C34.6987 15.8881 34.0409 16 33.3106 16Z" fill="var(--color-primary)"/>
<path d="M48.79 5.02985L44.8012 15.7761H43.1158L39.127 5.02985H40.9248L43.9023 13.5933H44.0147L46.9923 5.02985H48.79Z" fill="var(--color-primary)"/>
<path d="M52.6349 1.44776V15.7761H50.9776V1.44776H52.6349Z" fill="var(--color-primary)"/>
<path d="M62.4682 11.3825V5.02985H64.1255V15.7761H62.4682V13.9571H62.3558C62.103 14.5028 61.7098 14.9669 61.1761 15.3493C60.6423 15.7271 59.9682 15.916 59.1536 15.916C58.4794 15.916 57.8801 15.7691 57.3558 15.4753C56.8314 15.1768 56.4195 14.729 56.1198 14.132C55.8202 13.5303 55.6704 12.7724 55.6704 11.8582V5.02985H57.3277V11.7463C57.3277 12.5298 57.5477 13.1549 57.9878 13.6213C58.4326 14.0877 58.9991 14.3209 59.6873 14.3209C60.0993 14.3209 60.5183 14.216 60.9443 14.0061C61.375 13.7962 61.7355 13.4743 62.0258 13.0406C62.3207 12.6068 62.4682 12.0541 62.4682 11.3825Z" fill="var(--color-primary)"/>
<path d="M67.161 15.7761V5.02985H68.8183V15.7761H67.161ZM68.0037 3.23881C67.6807 3.23881 67.4021 3.1292 67.168 2.90998C66.9386 2.69076 66.8239 2.42724 66.8239 2.1194C66.8239 1.81157 66.9386 1.54804 67.168 1.32882C67.4021 1.10961 67.6807 1 68.0037 1C68.3268 1 68.603 1.10961 68.8324 1.32882C69.0665 1.54804 69.1835 1.81157 69.1835 2.1194C69.1835 2.42724 69.0665 2.69076 68.8324 2.90998C68.603 3.1292 68.3268 3.23881 68.0037 3.23881Z" fill="var(--color-primary)"/>
<path d="M71.5449 15.7761V14.5168L77.6685 6.68097V6.56903H71.7415V5.02985H79.8034V6.34515L73.8482 14.125V14.2369H80V15.7761H71.5449Z" fill="var(--color-primary)"/>
</svg>
